<svg width="34" height="34" viewBox="0 0 34 34" fill="none" xmlns="http://www.w3.org/2000/svg">
<path d="M26.2969 17.0498V28.3223H5.71094V7.73633H17.0166V5.74414H5.71094C4.61191 5.74414 3.71875 6.6373 3.71875 7.73633V28.3223C3.71875 29.4213 4.61191 30.3145 5.71094 30.3145H26.2969C27.3959 30.3145 28.2891 29.4213 28.2891 28.3223V17.0498H26.2969Z" fill="black"/>
<path d="M10.2233 23.9428C9.8348 23.5543 9.93441 22.8239 10.4457 22.3125L27.1104 5.64789C27.6217 5.13656 28.3522 5.03695 28.7407 5.42543C29.1291 5.8139 29.0295 6.54437 28.5182 7.0557L11.8536 23.7237C11.3422 24.2317 10.6118 24.3313 10.2233 23.9428Z" fill="black"/>
<path d="M29.2852 3.78516H21.3164C20.7652 3.78516 20.3203 4.23008 20.3203 4.78125C20.3203 5.33242 20.7652 5.77734 21.3164 5.77734H28.2891V12.75C28.2891 13.3012 28.734 13.7461 29.2852 13.7461C29.8363 13.7461 30.2812 13.3012 30.2812 12.75V4.78125C30.2812 4.23008 29.8363 3.78516 29.2852 3.78516Z" fill="black"/>
<path d="M16.0039 6.74023C16.0039 7.00441 16.1089 7.25778 16.2957 7.44458C16.4825 7.63138 16.7358 7.73633 17 7.73633C17.2642 7.73633 17.5175 7.63138 17.7043 7.44458C17.8911 7.25778 17.9961 7.00441 17.9961 6.74023C17.9961 6.47605 17.8911 6.22269 17.7043 6.03589C17.5175 5.84909 17.2642 5.74414 17 5.74414C16.7358 5.74414 16.4825 5.84909 16.2957 6.03589C16.1089 6.22269 16.0039 6.47605 16.0039 6.74023Z" fill="black"/>
<path d="M26.2969 17.0996C26.2969 17.3638 26.4018 17.6171 26.5886 17.804C26.7754 17.9908 27.0288 18.0957 27.293 18.0957C27.5571 18.0957 27.8105 17.9908 27.9973 17.804C28.1841 17.6171 28.2891 17.3638 28.2891 17.0996C28.2891 16.8354 28.1841 16.5821 27.9973 16.3953C27.8105 16.2085 27.5571 16.1035 27.293 16.1035C27.0288 16.1035 26.7754 16.2085 26.5886 16.3953C26.4018 16.5821 26.2969 16.8354 26.2969 17.0996Z" fill="black"/>
</svg>
