<svg width="56" height="51" viewBox="0 0 56 51" fill="none" xmlns="http://www.w3.org/2000/svg">
<path d="M16.3219 24C17.0521 24 17.6438 23.3574 17.6438 22.5644C17.6438 17.4773 20.3869 13.4766 24.9811 11.8634C25.6072 11.6438 25.9889 10.9573 25.877 10.2535C25.8589 10.1395 25.8499 10.0283 25.8499 9.92268C25.8499 8.79134 26.8099 7.87117 27.9897 7.87117C29.1687 7.87117 30.1282 8.79129 30.1282 9.92268C30.1282 10.032 30.1196 10.14 30.1029 10.2447C29.9867 10.9587 30.3796 11.6546 31.0177 11.8667C35.6816 13.4163 38.3563 17.3156 38.3563 22.5644C38.3563 23.3575 38.948 24 39.6782 24C40.4084 24 41 23.3574 41 22.5644C41 16.4324 37.9381 11.6134 32.7526 9.47779C32.5336 6.97113 30.481 5 27.9897 5C25.4901 5 23.432 6.98327 23.2233 9.5007C18.1243 11.7069 15 16.623 15 22.5644C15.0001 23.3574 15.5917 24 16.3219 24Z" fill="#FF8A00"/>
<path d="M41.4713 28.894V26.396C41.4713 25.6248 40.8587 25 40.1027 25C39.3467 25 38.734 25.6249 38.734 26.396V29.4347C38.734 29.7838 38.8624 30.1205 39.0936 30.3777C40.8511 32.3345 42.8787 34.8248 43.2609 35.6023C43.2471 36.0862 43.1144 36.208 41.8331 36.208H14.1682C12.9858 36.208 12.7804 35.8836 12.7448 35.5941C13.1466 34.8029 15.1715 32.3281 16.9273 30.3795C17.1598 30.1219 17.2886 29.7847 17.2886 29.4348V26.396C17.2886 25.6249 16.676 25 15.92 25C15.164 25 14.5514 25.6249 14.5514 26.396V28.8922C10 33.9895 10 34.9511 10 35.4191C10 37.15 11.0951 39 14.1682 39H41.8331C42.8635 39 46 39 46 35.4191C46 34.9493 46 33.9845 41.4713 28.894Z" fill="#FF8A00"/>
<path d="M23.5 19C22.6714 19 22 19.6017 22 20.3443V21.6557C22 22.3983 22.6714 23 23.5 23C24.3285 23 25 22.3983 25 21.6557V20.3443C25 19.6017 24.3286 19 23.5 19Z" fill="#FF8A00"/>
<path d="M32.5 19C31.6714 19 31 19.6017 31 20.3443V21.6557C31 22.3983 31.6714 23 32.5 23C33.3286 23 34 22.3983 34 21.6557V20.3443C34 19.6017 33.3286 19 32.5 19Z" fill="#FF8A00"/>
<path d="M27.9865 29C29.9154 29 31.2818 27.7408 31.785 26.9972C32.1896 26.3992 32.0058 25.6117 31.3795 25.2211C30.7518 24.8304 29.9055 24.9972 29.4858 25.5851C29.48 25.5931 28.8885 26.4055 27.9865 26.4055C27.1094 26.4055 26.5634 25.6531 26.5268 25.6007C26.124 25.0023 25.2858 24.8195 24.6474 25.1958C24.0046 25.5737 23.807 26.3735 24.2067 26.982C24.6987 27.7315 26.0482 29 27.9865 29Z" fill="#FF8A00"/>
<path d="M32.3027 40.1774C31.6554 39.7917 30.8473 40.0558 30.4971 40.7672C30.1008 41.571 29.3352 42.0707 28.4985 42.0707C27.6657 42.0707 26.9005 41.5701 26.5016 40.7648C26.1496 40.0544 25.3411 39.7921 24.6951 40.1788C24.0492 40.566 23.8107 41.4551 24.1623 42.1655C25.0281 43.9139 26.6898 45 28.4985 45C30.3132 45 31.9762 43.913 32.8389 42.1632C33.1893 41.4518 32.9491 40.5631 32.3027 40.1774Z" fill="#FF8A00"/>
</svg>
