<svg width="54" height="54" viewBox="0 0 54 54" fill="none" xmlns="http://www.w3.org/2000/svg">
<path d="M49.5 29.2106V40.5C49.5 43.9172 46.7297 46.6875 43.3125 46.6875H10.6875C7.27031 46.6875 4.5 43.9172 4.5 40.5V13.5C4.5 10.0828 7.27031 7.3125 10.6875 7.3125H43.3125C46.7297 7.3125 49.5 10.0828 49.5 13.5V29.2106ZM46.125 25.2754V13.5C46.125 13.1307 46.0523 12.7649 45.9109 12.4237C45.7696 12.0825 45.5624 11.7724 45.3012 11.5113C45.0401 11.2501 44.73 11.0429 44.3888 10.9016C44.0476 10.7602 43.6818 10.6875 43.3125 10.6875H10.6875C10.3182 10.6875 9.95243 10.7602 9.6112 10.9016C9.26997 11.0429 8.95993 11.2501 8.69876 11.5113C8.4376 11.7724 8.23043 12.0825 8.08909 12.4237C7.94775 12.7649 7.875 13.1307 7.875 13.5V31.6659C8.61989 31.5553 9.37194 31.4999 10.125 31.5C13.6533 31.4948 17.0725 32.7231 19.791 34.9723C22.5191 27.864 29.3681 23.0625 37.125 23.0625C40.59 23.0625 43.8221 23.9473 46.125 25.2754ZM46.125 29.6123C45.8438 29.1735 45.0107 28.4704 43.8232 27.8764C42.0171 26.973 39.7114 26.4375 37.125 26.4375C30.7035 26.4375 25.0419 30.4594 22.8639 36.3881C22.7199 36.7808 22.4736 37.4597 22.1259 38.4227C21.7209 39.546 20.3091 39.9049 19.4169 39.1112C18.5501 38.3394 17.9111 37.7893 17.5112 37.4687C15.4178 35.7856 12.8111 34.8702 10.125 34.875C9.36225 34.875 8.61019 34.947 7.875 35.0888V40.5C7.875 40.8693 7.94775 41.2351 8.08909 41.5763C8.23043 41.9175 8.4376 42.2276 8.69876 42.4887C8.95993 42.7499 9.26997 42.9571 9.6112 43.0984C9.95243 43.2398 10.3182 43.3125 10.6875 43.3125H43.3125C43.6818 43.3125 44.0476 43.2398 44.3888 43.0984C44.73 42.9571 45.0401 42.7499 45.3012 42.4887C45.5624 42.2276 45.7696 41.9175 45.9109 41.5763C46.0523 41.2351 46.125 40.8693 46.125 40.5V29.6117V29.6123ZM16.875 25.3125C15.5323 25.3125 14.2447 24.7791 13.2953 23.8297C12.3459 22.8803 11.8125 21.5927 11.8125 20.25C11.8125 18.9073 12.3459 17.6197 13.2953 16.6703C14.2447 15.7209 15.5323 15.1875 16.875 15.1875C18.2177 15.1875 19.5053 15.7209 20.4547 16.6703C21.4041 17.6197 21.9375 18.9073 21.9375 20.25C21.9375 21.5927 21.4041 22.8803 20.4547 23.8297C19.5053 24.7791 18.2177 25.3125 16.875 25.3125ZM16.875 21.9375C17.3226 21.9375 17.7518 21.7597 18.0682 21.4432C18.3847 21.1268 18.5625 20.6976 18.5625 20.25C18.5625 19.8024 18.3847 19.3732 18.0682 19.0568C17.7518 18.7403 17.3226 18.5625 16.875 18.5625C16.4274 18.5625 15.9982 18.7403 15.6818 19.0568C15.3653 19.3732 15.1875 19.8024 15.1875 20.25C15.1875 20.6976 15.3653 21.1268 15.6818 21.4432C15.9982 21.7597 16.4274 21.9375 16.875 21.9375Z" fill="black"/>
</svg>
